# xmcd CD database file
#
# Track frame offsets:
#	150
#	25192
#	52082
#	73577
#	98287
#	119102
#	135512
#	165827
#	190207
#	217137
#	246587
#	273012
#	298267
#
# Disc length: 4318 seconds
#
# Revision: 2
# Processed by: cddbd v1.5.1PL0 Copyright (c) Steve Scherf et al.
# Submitted via: CDex 1.51
#
DISCID=c410dc0d
DTITLE=Don Henley - California Desperados Live
DYEAR=1993
DGENRE=Country
TTITLE0=Boys of Summer
TTITLE1=End of the Innocence
TTITLE2=One of These Nights
TTITLE3=Well, Well, Well
TTITLE4=Margaritaville
TTITLE5=Volcano
TTITLE6=Hotel California
TTITLE7=Life In the Fast Lane
TTITLE8=The Heart of the Matter
TTITLE9=Sunset Grill
TTITLE10=Dirty Laundry
TTITLE11=All She Wants to Do is Dance
TTITLE12=Desperado
EXTD=YEAR: 1993
EXTT0=
EXTT1=
EXTT2=
EXTT3=
EXTT4=
EXTT5=
EXTT6=
EXTT7=
EXTT8=
EXTT9=
EXTT10=
EXTT11=
EXTT12=
PLAYORDER=
